<?xml version="1.0" encoding="UTF-8" standalone="no"?>
<!-- Created with Inkscape (http://www.inkscape.org/) -->
<svg id="svg2" xmlns:rdf="http://www.w3.org/1999/02/22-rdf-syntax-ns#" xmlns="http://www.w3.org/2000/svg" height="32" width="32" version="1.1" xmlns:cc="http://creativecommons.org/ns#" xmlns:dc="http://purl.org/dc/elements/1.1/">
 <g id="layer1" transform="matrix(.1918 0 0 .1919 -4.138 -165.8)">
  <g id="g3933">
   <g id="g3841" fill-opacity=".8969" fill="#b3b3b3">
    <path id="path3007" d="m159.2 52.28a24.75 22.97 0 1 1 -49.5 0 24.75 22.97 0 1 1 49.5 0z" transform="matrix(.6464 0 0 .6966 -38.91 967.9)"/>
    <path id="path3816" d="m118.9 1020c0.1 0 0.3-1 0.3-1 0.5-2 0.9-5 1.1-7 0.3-3 0.4-5 0.4-8 0-2-0.1-4.6-0.4-7.1-0.2-2.4-0.6-4.8-1.1-7.2-0.4-2.4-1.1-4.7-1.8-7-0.7-2.2-1.5-4.5-2.4-6.7-0.9-2.1-1.9-4.2-3.1-6.3-1.1-2.1-2.3-4.1-3.6-6s-2.7-3.8-4.2-5.6-3-3.5-4.69-5.1c-1.65-1.7-3.36-3.3-5.16-4.8-1.8-1.4-3.66-2.8-5.59-4.2-1.94-1.3-3.94-2.5-6-3.6s-4.17-2.1-6.35-3c-2.17-1-4.41-1.8-6.69-2.5-2.27-0.7-4.6-1.3-6.96-1.8-2.37-0.5-4.78-0.8-7.22-1.1-2.45-0.2-4.93-0.4-7.44-0.4s-4.99 0.2-7.44 0.4c-2.44 0.3-4.85 0.6-7.22 1.1-0.45 0.1-0.89 0.3-1.34 0.4v25.5c1.7-0.6 3.34-1.3 5.13-1.6 1.59-0.4 3.22-0.6 4.87-0.8s3.31-0.2 5-0.2 3.35 0 5 0.2 3.28 0.4 4.88 0.8c3.18 0.6 6.25 1.6 9.18 2.8s5.74 2.8 8.35 4.5c2.6 1.8 5.03 3.8 7.25 6 2.21 2.2 4.2 4.6 5.96 7.3 1.77 2.6 3.3 5.4 4.54 8.3s2.19 6 2.84 9.2c0.33 1.6 0.58 3.2 0.75 4.5 0.17 2 0.25 4 0.25 5 0 2-0.1 4-0.25 5-0.17 2-0.42 4-0.75 5-0.36 2-1.04 4-1.59 5h25.49z"/>
    <path id="path3807" d="m48 874.4c-4.49 0-8.91 0.2-13.28 0.6-0.92 0.1-1.81 0.3-2.72 0.4v29.6c1.89-0.3 3.76-0.7 5.69-0.9 3.39-0.3 6.83-0.5 10.31-0.5s6.92 0.2 10.31 0.5c3.39 0.4 6.72 0.9 10 1.5 3.28 0.7 6.5 1.5 9.66 2.5 3.15 1 6.23 2.1 9.25 3.4 3.01 1.3 5.96 2.7 8.81 4.2 2.86 1.6 5.67 3.3 8.27 5.1 2.7 1.8 5.3 3.7 7.8 5.8 2.5 2 4.9 4.2 7.1 6.5 2.3 2.3 4.5 4.7 6.6 7.2 2 2.5 4 5 5.8 7.7s3.5 5.5 5 8.3c1.6 2.9 3 5.8 4.3 8.8 1.2 3.1 2.4 6.1 3.4 9.3 0.9 3.1 1.7 6.4 2.4 9.6 0.7 3.3 1.2 6.7 1.6 10 0.3 3.4 0.5 7 0.5 10 0 4-0.2 7-0.5 11-0.2 2-0.6 3-0.9 5h29.5c0.1-1 0.4-1 0.4-2 0.5-5 0.7-9 0.7-14 0-4.1-0.2-8.5-0.7-12.9-0.4-4.4-1.1-8.7-2-12.9-0.8-4.3-1.9-8.4-3.1-12.5-1.3-4.1-2.8-8-4.4-11.9-1.7-3.9-3.5-7.7-5.5-11.4s-4.2-7.3-6.5-10.7c-2.3-3.5-4.8-6.8-7.5-10-2.6-3.2-5.4-6.3-8.4-9.3-2.9-2.9-6-5.7-9.2-8.4-3.2-2.6-6.6-5.1-10-7.5-3.5-2.3-7-4.4-10.7-6.5-3.7-2-7.5-3.8-11.41-5.4-3.88-1.7-7.86-3.1-11.93-4.4s-8.24-2.3-12.47-3.2c-4.23-0.8-8.54-1.5-12.91-2-4.37-0.4-8.79-0.6-13.28-0.6z"/>
   </g>
  </g>
 </g>
</svg>
